<svg version="1.1" xmlns="http://www.w3.org/2000/svg" xmlns:xlink="http://www.w3.org/1999/xlink" x="0px" y="0px"
	 width="840px" height="840px" viewBox="0 0 840 840"
	 style="overflow:visible;enable-background:new 0 0 840 840;" xml:space="preserve">
<path class="st0" d="M840,840H0V0h840V840z M317.95,274.14c-113.26,31.25-199.15,142.81-200.41,260.3
	c-0.31,28.74,5.28,60.09,26.81,79.12c21.13,18.67,51.68,20.63,79.77,22.94c45.56,3.74,91.37,10.93,133.51,28.65
	c27.19,11.44,52.5,27.11,80.03,37.7c27.53,10.59,58.72,15.81,86.38,5.56c24.58-9.11,43.27-29.12,60.57-48.81
	c20.13-22.92,39.7-46.33,58.69-70.2c33.84-42.54,67.54-92.86,59.73-146.66c-8.22-56.65-59.59-96.29-109.91-123.58
	c-66.16-35.89-137.84-61.59-211.73-75.93c-5.79-1.12-11.97-2.15-17.45,0.04c-5.55,2.21-9.34,7.27-13.44,11.62
	c-11.04,11.71-26.27,19.37-42.25,21.25"/>
</svg>