<!-- Generator: Adobe Illustrator 24.2.3, SVG Export Plug-In  -->
<svg version="1.1" xmlns="http://www.w3.org/2000/svg" xmlns:xlink="http://www.w3.org/1999/xlink" x="0px" y="0px"
	 width="183.44px" height="122.85px" preserveAspectRatio="none">

		<path d="M127.16,86.2c-3.98,0-6.79,2.4-7.7,6.96h14.33C133.7,89.26,131.38,86.2,127.16,86.2z"/>
		<path d="M38.68,73.44c-8.04,0-13.25,6.88-13.25,16.82c0,9.94,5.22,16.82,13.25,16.82c8.12,0,13.42-6.88,13.42-16.82
			C52.1,80.32,46.8,73.44,38.68,73.44z"/>
		<path d="M152.92,29.36c-3.98,0-6.79,2.4-7.7,6.96h14.33C159.46,32.42,157.14,29.36,152.92,29.36z"/>
		<path d="M72.65,42.86c-3.23,0-6.54,1.41-6.54,4.56c0,3.23,3.31,4.56,6.54,4.56c2.98,0,5.8-1.24,6.71-3.23v-2.65
			C78.45,44.1,75.63,42.86,72.65,42.86z"/>
		<path d="M0,0v122.85h183.44V0H0z M73.64,20.99c9.86,0,15.57,5.38,15.57,14.25v23.61h-9.86v-1.99c-1.24,1.24-4.97,2.65-9.03,2.65
			c-7.46,0-13.75-4.31-13.75-12.01c0-7.04,6.3-11.85,14.33-11.85c3.23,0,6.96,1.08,8.45,2.15v-2.73c0-3.15-1.91-5.72-6.05-5.72
			c-2.9,0-4.64,1.33-5.47,3.48h-9.77C59.15,26.13,65.19,20.99,73.64,20.99z M14.41,7.98h43.41v9.28h-16.4v41.59H30.73V17.26H14.41
			V7.98z M38.68,116.52c-14.17,0-24.02-11.1-24.02-26.26C14.66,75.02,24.52,64,38.68,64c14.17,0,24.11,11.02,24.11,26.26
			C62.79,105.42,52.85,116.52,38.68,116.52z M103.05,115.69H92.78V93.65c0-3.89-1.99-6.54-6.05-6.54c-3.15,0-5.88,1.91-6.71,5.14
			v23.44H69.75V78.66h10.27v3.4c1.99-2.32,5.63-4.23,9.94-4.23c8.37,0,13.09,5.47,13.09,13.67V115.69z M107.85,58.85H97.58V5h10.27
			v30.57l12.67-13.75h12.76l-14.99,15.74l15.57,21.29h-12.18l-10.85-14.91l-2.98,3.23V58.85z M143.89,99.37H119.2
			c0.33,5.55,3.48,8.86,8.04,8.86c3.48,0,6.05-1.49,6.88-4.64h9.53c-1.33,7.87-7.12,12.92-16.4,12.92
			c-10.77,0-17.98-7.87-17.98-19.3c0-11.18,7.46-19.38,17.81-19.38c10.85,0,16.82,7.54,16.82,18.39V99.37z M169.65,42.53h-24.69
			c0.33,5.55,3.48,8.86,8.04,8.86c3.48,0,6.05-1.49,6.88-4.64h9.53c-1.33,7.87-7.12,12.92-16.4,12.92
			c-10.77,0-17.98-7.87-17.98-19.3c0-11.18,7.46-19.38,17.81-19.38c10.85,0,16.82,7.54,16.82,18.39V42.53z"/>

</svg>
