<?xml version="1.0" encoding="utf-8"?>
<!-- Generator: Adobe Illustrator 24.3.0, SVG Export Plug-In . SVG Version: 6.00 Build 0)  -->
<svg version="1.1" id="Layer_1" xmlns="http://www.w3.org/2000/svg" xmlns:xlink="http://www.w3.org/1999/xlink" x="0px" y="0px"
	 width="211.9px" height="12.4px" viewBox="0 0 211.9 12.4" style="enable-background:new 0 0 211.9 12.4;" xml:space="preserve">
<style type="text/css">
	.st0{fill:#FFFFFF;}
</style>
<g>
	<path class="st0" d="M2.5,8v4.2H0v-12h4.9c2.5,0,4.2,1.4,4.2,3.9C9.1,6.7,7.4,8,4.9,8H2.5z M4.7,2.3H2.5v3.6h2.2
		c1.3,0,1.9-0.7,1.9-1.8C6.6,3,6,2.3,4.7,2.3z"/>
	<path class="st0" d="M10.8,0.2h2.5V10h5.6v2.2h-8.1V0.2z"/>
	<path class="st0" d="M20.1,7.4V0.2h2.5v6.9c0,2.1,0.9,3,2.5,3c1.6,0,2.5-1,2.5-3V0.2H30v7.2c0,3.3-2,5-5,5
		C22.1,12.4,20.1,10.7,20.1,7.4z"/>
	<path class="st0" d="M37.9,7.9v-2h4.7V7c0,3.3-2.2,5.4-5.2,5.4c-3.3,0-5.8-2.5-5.8-6.2c0-3.7,2.5-6.2,5.7-6.2
		c2.9,0,4.6,1.7,5.1,4.1h-2.5c-0.4-1.1-1.2-1.8-2.6-1.8c-2,0-3.2,1.7-3.2,4c0,2.3,1.2,4,3.2,4c1.5,0,2.5-0.9,2.8-2.3H37.9z"/>
	<path class="st0" d="M51,12.2h-2.5v-12H51V12.2z"/>
	<path class="st0" d="M63.3,12.2h-2l-5.7-8v8h-2.4v-12h2.3l5.3,7.6V0.2h2.4V12.2z"/>
	<path class="st0" d="M77.9,0.2v2.2h-5.7V5h5.2v2.1h-5.2V10h5.7v2.2h-8.1v-12H77.9z"/>
	<path class="st0" d="M79.8,0.2h4.2c3.6,0,5.9,2.3,5.9,6s-2.3,6-5.9,6h-4.2V0.2z M84,10c2.3,0,3.5-1.5,3.5-3.8
		c0-2.3-1.2-3.8-3.5-3.8h-1.7V10H84z"/>
	<path class="st0" d="M94.2,12.2h-2.5v-12h2.5V12.2z"/>
	<path class="st0" d="M95.9,0.2h10.2v2.2h-3.9v9.8h-2.5V2.4h-3.8V0.2z"/>
	<path class="st0" d="M110.2,12.2h-2.5v-12h2.5V12.2z"/>
	<path class="st0" d="M117.6,12.4c-3.3,0-5.7-2.6-5.7-6.2c0-3.6,2.3-6.2,5.7-6.2c3.3,0,5.7,2.6,5.7,6.2
		C123.3,9.8,120.9,12.4,117.6,12.4z M117.6,2.2c-1.9,0-3.1,1.6-3.1,4c0,2.3,1.2,4,3.1,4c1.9,0,3.2-1.6,3.2-4
		C120.8,3.8,119.5,2.2,117.6,2.2z"/>
	<path class="st0" d="M135.1,12.2h-2l-5.7-8v8H125v-12h2.3l5.3,7.6V0.2h2.4V12.2z"/>
	<path class="st0" d="M139.1,8.8c0.3,1.1,1.2,1.5,2.4,1.5c1.2,0,2-0.5,2-1.5c0-0.7-0.4-1.1-1.5-1.3L139.9,7c-1.7-0.4-3-1.3-3-3.3
		c0-2.2,1.8-3.7,4.3-3.7c2.7,0,4.3,1.4,4.7,3.5h-2.5c-0.3-0.8-1-1.4-2.2-1.4c-1.1,0-1.9,0.5-1.9,1.4c0,0.7,0.4,1.1,1.3,1.3l2.2,0.5
		c2,0.4,3.1,1.6,3.1,3.4c0,2.3-1.9,3.7-4.5,3.7c-2.7,0-4.6-1.3-5-3.6H139.1z"/>
	<path class="st0" d="M156.9,12.4c-3.3,0-5.7-2.6-5.7-6.2c0-3.6,2.3-6.2,5.7-6.2c3.3,0,5.7,2.6,5.7,6.2
		C162.6,9.8,160.3,12.4,156.9,12.4z M156.9,2.2c-1.9,0-3.1,1.6-3.1,4c0,2.3,1.2,4,3.1,4c1.9,0,3.2-1.6,3.2-4
		C160.1,3.8,158.9,2.2,156.9,2.2z"/>
	<path class="st0" d="M174.4,12.2h-2l-5.7-8v8h-2.4v-12h2.3l5.3,7.6V0.2h2.4V12.2z"/>
	<path class="st0" d="M176.7,0.2h2.5V10h5.6v2.2h-8.1V0.2z"/>
	<path class="st0" d="M189.1,12.2h-2.5v-12h2.5V12.2z"/>
	<path class="st0" d="M201.5,12.2h-2l-5.7-8v8h-2.4v-12h2.3l5.3,7.6V0.2h2.4V12.2z"/>
	<path class="st0" d="M211.9,0.2v2.2h-5.7V5h5.2v2.1h-5.2V10h5.7v2.2h-8.1v-12H211.9z"/>
</g>
<g>
</g>
<g>
</g>
<g>
</g>
<g>
</g>
<g>
</g>
<g>
</g>
</svg>
